<svg xmlns="http://www.w3.org/2000/svg" viewBox="0 0 368 368" width="40" height="40" fill="#fff"><path d="M352 48H16c-1.104 0-2.184.112-3.224.328C5.496 49.816 0 56.28 0 64v240c0 7.72 5.496 14.184 12.776 15.672 1.04.216 2.12.328 3.224.328h336c1.104 0 2.184-.112 3.224-.328C362.504 318.184 368 311.72 368 304V64c0-8.824-7.176-16-16-16zM16 95.712l126.888 92.28L16 280.288V95.712zM352 304H16v-3.92l140.488-102.184 22.816 16.584a7.996 7.996 0 009.408 0l22.816-16.584L352 300.072V304zm0-23.712l-126.888-92.296L352 95.712v184.576zm0-204.36L184 198.112 16 75.928V64h336v11.928z"/></svg>